<?xml version="1.0" encoding="UTF-8"?>
<svg id="Layer_1" xmlns="http://www.w3.org/2000/svg" version="1.1" viewBox="200 340 220 220">
  <!-- Generator: Adobe Illustrator 29.3.1, SVG Export Plug-In . SVG Version: 2.1.0 Build 151)  -->
  <defs>
    <style>
      .st0 {
        fill: #c2c1c1;
      }

      .st1 {
        fill: #8b181b;
      }

      .st2 {
        fill: #c74b4b;
      }

      .st3 {
        fill: #fff;
      }

      .st4 {
        fill: #2e2d2c;
      }

      .st5 {
        fill: #cfae81;
      }

      .st6 {
        fill: #606161;
      }

      .st7 {
        fill: #efd2a9;
      }

      .st8 {
        fill: #e1c49e;
      }

      .st9 {
        fill: #010101;
      }

      .st10 {
        fill: #b52025;
      }

      .st11 {
        fill: #7d8282;
      }

      .st12 {
        fill: #670f0f;
      }

      .st13 {
        fill: #4c1413;
      }
    </style>
  </defs>
  <polygon class="st13" points="283 386.9 267.6 380.5 272.5 399.3 284.2 402 283 386.9"/>
  <polygon class="st13" points="328.3 386.9 327.1 402 338.8 399.3 343.7 380.5 328.3 386.9"/>
  <path class="st1" d="M382.9,411.8c-19.9-8.9-47.3-3.7-47.3-3.7l-9.7,14.6,15.7,16.5s19.9-13.9,34.4-9.7c14.5,4.2,10,19.9,10,19.9,8.5-3.9,16.8-28.7-3.1-37.6Z"/>
  <g>
    <path class="st13" d="M390.6,417.5c-1-1.2-2.3-2.4-3.8-3.4-4.8,3.3-7.9,10-9.7,15.9,1,.4,1.9.8,2.7,1.3,2-6.3,6.4-10.7,10.8-13.7Z"/>
    <path class="st13" d="M395.1,431.3c0-1.7,0-3.3-.4-5-4,.9-8,4.4-11.3,8,.9,1.1,1.5,2.3,2,3.5,2.8-3.5,6.4-5.4,9.6-6.5Z"/>
    <path class="st13" d="M364.4,407.1c-.8,0-1.6-.2-2.5-.2l1.6,22.6c1.1-.2,2.2-.4,3.3-.5l-2.5-21.8Z"/>
    <path class="st13" d="M372,408.3c-2,5.6-2.3,14.5-2.3,20.4,1.2,0,2.5,0,3.7.2-.5-7.6,1.9-15,3.7-19.4-1.7-.5-3.3-.9-5-1.3Z"/>
  </g>
  <path class="st1" d="M236.1,429.5c14.5-4.2,34.4,9.7,34.4,9.7l15.7-16.5-9.7-14.6s-27.4-5.2-47.3,3.7c-19.9,8.9-11.6,33.8-3.1,37.6,0,0-4.5-15.7,10-19.9Z"/>
  <path class="st4" d="M317.8,319.9s-7.8,25.3-9.3,25.9l2.1,57.8,7.2-1.9v-81.8Z"/>
  <path class="st4" d="M295.9,319.9v67l8,14.8,2.9-64.6c-.8-.2-10.9-17.3-10.9-17.3Z"/>
  <ellipse class="st10" cx="305.9" cy="420.4" rx="50.1" ry="45.4"/>
  <path class="st1" d="M350.4,441.2c3.6-6.2,5.6-13.3,5.6-20.8s-1.4-12.1-3.9-17.5c-6.4-1-19.1-2-30.2,2-10.3,3.7-14.4,7.1-16.1,10-1.7-2.8-5.8-6.2-16.1-10-11.1-4-23.8-2.9-30.2-2-2.5,5.4-3.9,11.3-3.9,17.5s2,14.6,5.6,20.8l44.6-2.1,44.6,2.1Z"/>
  <path class="st1" d="M295.2,464.8c3.4.7,7,1,10.6,1,27.7,0,50.1-20.3,50.1-45.4s-22.4-45.4-50.1-45.4-7.2.4-10.6,1c22.6,4.4,39.5,22.6,39.5,44.4s-16.9,39.9-39.5,44.4Z"/>
  <path class="st0" d="M271.1,549.1l7.2,10.5,10-6.6,6.9,8.4,6.6-7.4,5.6,7.4,4.7-8,13.1,8,8.5-8.4,8.7,6.2s1.2-31.9-3.3-39.9c-4.5-8-18.9-12.9-20.5-13.3l-48.9,2.2c-.6.8-15.8,43.6-15.8,43.6l8.6-5.9,2,9.8,6.8-6.6Z"/>
  <g>
    <path class="st5" d="M378.8,522c4.3-3.2,11-10.2,6.1-15.6-3.9-4.3-8.5-.3-12.3,2.5-7.7,5.6-17.3,7.9-26.7,5.5-5-1.3-9.4-3.8-13.4-7-1.8-1.5-6.2-5.6-6.9-5.2-2.4,1.6,11.4,19.4,17.3,22.4,11.4,5.9,26.1,4.8,36-2.6Z"/>
    <path class="st1" d="M358.8,524.2s0,0,0,0c0,0,0,0,0,0Z"/>
    <path class="st1" d="M355.1,534.7c14.2-1.9,24.9-13.5,24.9-13.5-6.4-1.6-8.1-11.7-8.1-11.7-6.5,2.3-10.4,4.9-10.4,4.9l3.1,1.5s-5.3,7.9-5.7,8.3c.4-.1,5.5-.6,5.5-.6l-9.3,11.1Z"/>
    <g>
      <path class="st12" d="M358.8,524.2s0,0,0,0c0,0,0,0,0,0Z"/>
      <path class="st12" d="M368,530.2h-6.3l6.7-8.1-4.5-.8,5.7-7.3s-2.6-.7-5.1-1.4c-1.9,1-3,1.7-3,1.7l3.1,1.5s-5.3,7.9-5.7,8.3c.4-.1,5.5-.6,5.5-.6l-9.3,11.1c4.8-.6,9.3-2.4,13-4.5Z"/>
    </g>
    <path class="st1" d="M372.8,524.9l1-.8c-.5-.5-.9-.5-1,.8Z"/>
    <path class="st1" d="M372.8,525.5c0-.2,0-.4,0-.6l-4.3,3.4,1.1,4.2s3.2-2.2,3.2-7Z"/>
    <path class="st1" d="M376.5,522.1l-2.7,2.1c.9.9,2.1,3.7,2.1,3.7,0,0,2.3-3.2.6-5.8Z"/>
  </g>
  <g>
    <path class="st5" d="M269.7,521.2c5.9-3,19.7-20.8,17.3-22.4-.8-.5-5.1,3.7-6.9,5.2-4,3.2-8.4,5.7-13.4,7-9.4,2.5-19,.1-26.7-5.5-3.8-2.8-8.4-6.8-12.3-2.5-4.9,5.4,1.8,12.4,6.1,15.6,9.9,7.4,24.6,8.5,36,2.6Z"/>
    <path class="st1" d="M253.7,520.7s0,0,0,0c0,0,0,0,0,0Z"/>
    <path class="st1" d="M240.6,506s-1.7,10.1-8.1,11.7c0,0,10.7,11.7,24.9,13.5l-9.3-11.1s5.1.5,5.5.6c-.4-.4-5.7-8.3-5.7-8.3l3.1-1.5s-3.9-2.5-10.4-4.9Z"/>
    <g>
      <path class="st12" d="M253.6,520.7s0,0,0,0c0,0,0,0,0,0Z"/>
      <path class="st12" d="M248,509.2c-2.5.7-5.1,1.4-5.1,1.4l5.7,7.3-4.5.8,6.7,8.1h-6.3c3.7,2.1,8.2,3.8,13,4.5l-9.3-11.1s5.1.5,5.5.6c-.4-.4-5.7-8.3-5.7-8.3l3.1-1.5s-1.1-.7-3-1.7Z"/>
    </g>
    <path class="st1" d="M238.6,520.7l1,.8c0-1.3-.5-1.3-1-.8Z"/>
    <path class="st1" d="M235.9,518.6c-1.7,2.6.6,5.8.6,5.8,0,0,1.2-2.7,2.1-3.7l-2.7-2.1Z"/>
    <path class="st1" d="M242.9,529.1l1.1-4.2-4.3-3.4c0,.2,0,.4,0,.6,0,4.9,3.2,7,3.2,7Z"/>
  </g>
  <path class="st10" d="M307.5,425c-.3-3.4-1.6-8.2-17.3-13.9-15.6-5.7-34.3-1.2-34.3-1.2l-3,37.9,54.6-2.6c.2-.9.3-16.9,0-20.3Z"/>
  <path class="st10" d="M356.7,409.9s-18.7-4.4-34.3,1.2c-15.6,5.7-17,10.5-17.3,13.9-.3,3.4-.2,19.3,0,20.3l54.6,2.6-3-37.9Z"/>
  <path class="st1" d="M337.5,408.3v38.5l22.2,1-3-37.9s-8.7-2.1-19.2-1.6Z"/>
  <circle class="st5" cx="256.9" cy="452.5" r="10.3"/>
  <circle class="st5" cx="356" cy="452.5" r="10.3"/>
  <path class="st5" d="M330.6,569.1c.9-4.1,1.5-9.4,1.7-16.2,1.1-29.6-12.7-85.2-13.4-85.4l-3.2-5.1s-3-2.3-6.4-3.8c-1-1.3-2.6-1.6-4.3-1.4-1.8-.2-3.3,0-4.3,1.4-3.4,1.6-6.4,3.8-6.4,3.8l-3.2,5.1c-.7.2-14.4,55.8-13.4,85.4.2,6.8.8,12.1,1.7,16.2h19.4c-.9-8.5-2.8-20.4-3.2-34h18.8c-.4,13.5-2.3,25.5-3.2,34h19.4Z"/>
  <path class="st11" d="M277.1,545.1l.4.5s13.1-9.4,18.1-11c5-1.6,6.7-12.9,6-14.2s-7.2-5.7-7.2-5.7l-14.3,4.5s-5.5,9.2-3,14.6c0,0-3.4,8.2,0,11.3Z"/>
  <g>
    <path class="st6" d="M299.1,531.3c.7-1.2,1.2-2.6,1.6-3.9-6.9.9-16.7,2.6-23.8,5.8,0,.2.1.4.2.6,0,0-.9,2.2-1.3,4.8,5-3,14.1-7.6,23.3-7.4Z"/>
    <path class="st6" d="M301.5,520.5c-.1-.3-.5-.7-1.1-1.2-6.3-.7-14.2-1-20.9.9-.8,1.5-2.4,4.8-2.9,8.2,7.1-3.1,16.1-5.6,24.7-3.6.4-2.1.5-3.9.2-4.3Z"/>
  </g>
  <path class="st11" d="M330.1,519.3l-14.3-4.5s-6.5,4.4-7.2,5.7,1,12.6,6,14.2,18.1,11,18.1,11l.4-.5c3.4-3.1,0-11.3,0-11.3,2.5-5.4-3-14.6-3-14.6Z"/>
  <g>
    <path class="st6" d="M309.5,527.4c.4,1.4.9,2.7,1.6,3.9,9.2-.3,18.3,4.3,23.3,7.4-.4-2.6-1.3-4.8-1.3-4.8,0-.2.2-.4.2-.6-7.1-3.2-16.9-5-23.8-5.8Z"/>
    <path class="st6" d="M333.5,528.3c-.5-3.3-2.1-6.6-2.9-8.2-6.6-1.9-14.6-1.6-20.9-.9-.5.5-.9.9-1.1,1.2-.2.5-.2,2.2.2,4.3,8.5-2,17.5.4,24.7,3.6Z"/>
  </g>
  <path class="st12" d="M321,505.9l-11.5,8.3s-1.2,8.6,18.4,10.2c19.6,1.5,34.4-18.5,34.4-18.5h-4.9l8.8-9.4-45.1,9.4Z"/>
  <path class="st1" d="M284.8,524.4c19.6-1.5,18.4-10.2,18.4-10.2l-11.5-8.3-45.1-9.4,8.8,9.4h-4.9s14.8,20,34.4,18.5Z"/>
  <polygon class="st12" points="321.3 513.6 318.5 515.1 305.7 517.7 292.9 515.1 290.1 513.6 289.2 538.4 305.7 550.1 322.2 538.4 321.3 513.6"/>
  <path class="st9" d="M345.2,517.3c9.9-8.6,13.6-49.6,13.6-49.6l-18.8-14.8-32.7,1.9-32.7-1.9-18.8,14.8s3.7,41,13.6,49.6c9.9,8.6,13.6,9.3,13.6,9.3l-1.9-17.6s5.2,21,26.2,27.1c21-6.2,26.2-27.1,26.2-27.1l-1.9,17.6s3.7-.6,13.6-9.3Z"/>
  <path class="st7" d="M309.4,479.8c1.5,1.1,9.8-2.3,9.8-2.3,0,0,1.4-3.6,2.1-3.7s26.4-5,26.4-5l9.7-26.3c-1-4.9-2.7-9.5-5-13.7-25.9.7-48.4,7.7-48.4,7.7-11.9-5-35.5-5.8-46.2-5.9-2.4,4.9-4,10.3-4.7,15.9l8.2,22.4s25.6,4.8,26.4,5,2.1,3.7,2.1,3.7c0,0,8.3,3.4,9.8,2.3,1.5-1.1,1.3-8.6,1.3-8.6l2.6-.2c0-.1,0-.2,0-.2h1c0,0,1,0,1,0,0,0,0,0,0,.2l2.6.2s-.2,7.6,1.3,8.6Z"/>
  <path class="st8" d="M347.7,468.7l9.7-26.3c-1-4.9-2.7-9.5-5-13.7-4.4.1-8.8.4-12.9.9,3.5,6.8,5.5,14.5,5.5,22.7s-1.6,13.2-4.4,17.9c4.1-.8,7.1-1.3,7.1-1.3Z"/>
  <circle class="st10" cx="275.7" cy="454.2" r="10"/>
  <path class="st5" d="M304.4,456c-1.9,0-3.6,1.3-4.1,3,1.1-.7,2.5-1.2,4.1-1.2s3.1.4,4.1,1.2c-.6-1.7-2.2-3-4.1-3Z"/>
  <circle class="st10" cx="333.6" cy="454.2" r="10"/>
  <path class="st8" d="M312.2,465.3h-14.5c.8,4.5,3.8,7.9,7.2,7.9s6.4-3.3,7.2-7.9Z"/>
  <path class="st3" d="M312.2,465.3h-14.5c.8,3.2,3.8,5.6,7.2,5.6s6.4-2.4,7.2-5.6Z"/>
  <g>
    <g>
      <circle class="st10" cx="379.8" cy="476.8" r="13.2"/>
      <path class="st10" d="M384.2,468.3l-3.7-2.4-8-5v8.2l-1.3,1.6-8.5,4.7s6.6,5.3,7,5.3l-.5,2.7-.2,6.5,8.2-1.7,7.4,4.6.5-7.3,3.1-1.4,7.8-1.9-4.1-5.6-1.1-1.9,3.1-9.8-9.6,3.2Z"/>
      <circle class="st2" cx="379.8" cy="476.8" r="3.3"/>
    </g>
    <path class="st10" d="M380.6,487.3l-2.4-1.1-1,47.4s1.9,1.4,5.4,0l-2.1-46.3Z"/>
  </g>
  <path class="st5" d="M384.5,511.8l1.2,2.1s2.2-3.9-.8-8.3c-3.1-4.5-11.3-2.4-11.6,4.3-.3,6.7,9.2,6.8,11.2,2Z"/>
  <circle class="st3" cx="272.6" cy="457.9" r="3.1"/>
  <circle class="st3" cx="331.6" cy="457.9" r="3.1"/>
  <path class="st10" d="M257.1,416.5s-11.9,61.1-5.3,76.9c6.6,15.8,23,25.9,23,25.9v-54.1l-15.2-3.5,3.1-44.2-5.6-1Z"/>
  <path class="st1" d="M338.9,519.3s16.4-10.1,23-25.9c6.6-15.8-5.3-76.9-5.3-76.9l-5.6,1,3.1,44.2-15.2,3.5v54.1Z"/>
  <path class="st9" d="M294.1,445.4v-3.3c-8.6.3-21.3-8.3-21.3-8.3,0,0-9.3,5.3-9.6,5.3l9.6-2.5c6.2,6.5,21.3,8.7,21.3,8.7Z"/>
  <path class="st9" d="M349.7,439.2c-.3,0-9.6-5.3-9.6-5.3,0,0-12.6,8.6-21.3,8.3v3.3s15.1-2.3,21.3-8.7l9.6,2.5Z"/>
  <path class="st9" d="M300.9,463.8l5-3.6h-2.8l-16.3,2.1s-6.3,13.5-5.8,13.8,11.4,10.3,11.1,9.5c-.3-.8.5-19.9.5-19.9l8.5-1.8Z"/>
  <path class="st9" d="M328.5,476.1c.5-.3-5.8-13.8-5.8-13.8l-16.3-2.1h-2.8l5,3.6,8.5,1.8s.8,19.1.5,19.9c-.3.8,10.6-9.1,11.1-9.5Z"/>
  <path class="st1" d="M274.6,558.7s1.4,7,6.4,6.8c5-.2,4.3-6.3,4.3-6.3l-6.9-11.8-1.3,1.7-4.9-3.3s-.3,7.8,5.5,9.4c5.7,1.6,2.3,6.6,2.3,6.6l-5.4-3.2Z"/>
  <path class="st1" d="M298.2,552.6l-9.9-10.9-1,5.6-12.4-12.5s.6,26.6,4.5,34.4h20.4l-1.7-16.5Z"/>
  <path class="st12" d="M289.2,547s5.1,5,9.3,9.1l-.4-3.5-9.9-10.9-1,5.6-12.4-12.5s0,2.2.2,5.6l12.7,11.6,1.4-4.9Z"/>
  <path class="st1" d="M332.8,555.3c5.7-1.6,5.5-9.4,5.5-9.4l-4.9,3.3-1.3-1.7-6.9,11.8s-.7,6.1,4.3,6.3c5,.2,6.4-6.8,6.4-6.8l-5.4,3.2s-3.4-5,2.3-6.6Z"/>
  <path class="st1" d="M323.2,547.2l-1-5.6-9.9,10.9-1.7,16.5h20.4c3.9-7.9,4.5-34.4,4.5-34.4l-12.4,12.5Z"/>
  <path class="st12" d="M335.4,540.2c.2-3.4.2-5.6.2-5.6l-12.4,12.5-1-5.6-9.9,10.9-.4,3.5c4.2-4.1,9.3-9.1,9.3-9.1l1.4,4.9,12.7-11.6Z"/>
  <path class="st1" d="M267.2,513.6v-39.1l-17.2-5.3c0,1-.1,1.9-.1,2.8l14.6,4.8v34.3c.8.9,1.8,1.8,2.7,2.6Z"/>
  <path class="st12" d="M363.6,469.2l-17.4,5.4v39.3c.9-.8,1.9-1.6,2.9-2.6v-34.4c-.1,0,14.6-4.8,14.6-4.8,0-.9,0-1.9-.1-2.8Z"/>
  <g>
    <g>
      <circle class="st10" cx="233.1" cy="476.2" r="13.2"/>
      <path class="st10" d="M237.6,467.7l-3.7-2.4-8-5v8.2l-1.3,1.6-8.5,4.7s6.6,5.3,7,5.3l-.5,2.7-.2,6.5,8.2-1.7,7.4,4.6.5-7.3,3.1-1.4,7.8-1.9-4.1-5.6-1.1-1.9,3.1-9.8-9.6,3.2Z"/>
      <path class="st2" d="M236.4,476.2c0-1.8-1.5-3.3-3.3-3.3s-3.3,1.5-3.3,3.3,1.5,3.3,3.3,3.3,3.3-1.5,3.3-3.3Z"/>
    </g>
    <path class="st10" d="M234,486.7l-2.4-1.1-1,47.4s1.9,1.4,5.4,0l-2.1-46.3Z"/>
  </g>
  <path class="st5" d="M239.1,505.1c-.3-6.7-8.5-8.8-11.6-4.3-3.1,4.5-.8,8.3-.8,8.3l1.2-2.1c2,4.8,11.5,4.6,11.2-2Z"/>
  <path class="st4" d="M317.8,376.3l-2.6-5.6-13.2-4.7c0,.5-6.1,10.2-6.1,10.2l4.4,19.6h13l4.4-19.5Z"/>
  <polygon class="st6" points="313.4 395.8 317.8 319.9 306.8 319.9 295.9 319.9 300.3 395.8 306.8 397.8 313.4 395.8"/>
  <g>
    <path class="st13" d="M234.9,429.9c-1.9-5.9-5-12.6-9.7-15.9-1.5,1-2.7,2.2-3.8,3.4,4.4,3,8.7,7.4,10.8,13.7.8-.5,1.7-.9,2.7-1.3Z"/>
    <path class="st13" d="M226.5,437.7c.5-1.2,1.1-2.4,2-3.5-3.3-3.6-7.3-7.1-11.3-8-.3,1.7-.4,3.3-.4,5,3.3,1.1,6.8,3,9.6,6.5Z"/>
    <path class="st13" d="M247.6,407.1l-2.5,21.8c1.1.1,2.2.3,3.3.5l1.6-22.6c-.8,0-1.6.1-2.5.2Z"/>
    <path class="st13" d="M242.3,428.8c0-5.9-.3-14.8-2.3-20.4-1.7.4-3.4.8-5,1.3,1.8,4.3,4.2,11.8,3.7,19.4,1.2-.2,2.4-.3,3.7-.2Z"/>
  </g>
  <circle class="st1" cx="305.5" cy="427.7" r="3.2"/>
  <circle class="st1" cx="284.7" cy="420.1" r="3.2"/>
  <circle class="st1" cx="325.7" cy="420.4" r="3.2"/>
</svg>